<?xml version="1.0" standalone="no"?>
<!DOCTYPE svg PUBLIC "-//W3C//DTD SVG 20010904//EN"
 "http://www.w3.org/TR/2001/REC-SVG-20010904/DTD/svg10.dtd">
<svg version="1.0" xmlns="http://www.w3.org/2000/svg"
 width="1186.000000pt" height="1186.000000pt" viewBox="0 0 1186.000000 1186.000000"
 preserveAspectRatio="xMidYMid meet">
<metadata>
Created by potrace 1.14, written by Peter Selinger 2001-2017
</metadata>
<g transform="translate(0.000000,1186.000000) scale(0.100000,-0.100000)"
fill="#000000" stroke="none">
<path d="M11285 10872 c-11 -2 -27 -6 -35 -9 -8 -3 -19 -7 -25 -9 -5 -1 -37
-10 -70 -19 -74 -20 -221 -52 -289 -61 -60 -9 -216 -9 -266 -1 -86 14 -105 19
-117 29 -9 7 -13 7 -13 -1 0 -8 -5 -9 -19 -2 -17 9 -63 22 -131 35 -14 2 -56
11 -95 19 -142 30 -330 17 -480 -34 -70 -24 -229 -99 -233 -111 -2 -4 -10 -8
-17 -8 -8 0 -20 -6 -27 -13 -29 -28 -83 -61 -103 -62 -11 -1 -27 -4 -35 -7 -8
-3 -40 -15 -72 -26 -112 -41 -273 -176 -420 -352 -35 -41 -65 -77 -68 -80 -3
-3 -18 -23 -35 -45 -16 -22 -34 -45 -40 -52 -9 -12 -27 -35 -109 -145 -77
-103 -126 -233 -120 -318 6 -83 33 -136 107 -213 29 -30 36 -44 31 -61 -4 -11
-8 -28 -9 -36 -1 -8 -5 -22 -8 -30 -3 -8 -17 -51 -32 -95 -45 -134 -175 -381
-207 -393 -4 -2 -8 -10 -8 -17 0 -15 -192 -213 -229 -235 -13 -8 -30 -21 -37
-28 -8 -7 -14 -10 -14 -6 0 4 -6 0 -12 -9 -11 -13 -206 -118 -234 -124 -5 -1
-42 -14 -82 -28 -41 -14 -83 -27 -95 -29 -12 -2 -42 -9 -67 -15 -61 -14 -90
-18 -195 -31 -49 -6 -108 -13 -130 -16 -32 -3 -539 -18 -580 -16 -5 0 -131 3
-280 6 -148 4 -335 8 -415 11 -186 7 -715 7 -800 1 -36 -3 -114 -8 -175 -11
-60 -3 -123 -7 -140 -10 -16 -2 -55 -6 -85 -10 -154 -17 -145 -16 -215 -30
-11 -2 -38 -7 -60 -10 -82 -13 -130 -23 -130 -25 0 -1 -11 -3 -25 -6 -21 -3
-40 -8 -82 -19 -5 -2 -11 -4 -15 -5 -5 -1 -12 -3 -18 -5 -5 -1 -13 -3 -17 -5
-5 -1 -11 -3 -15 -4 -5 -1 -35 -10 -68 -21 -33 -10 -65 -19 -70 -20 -26 -6
-179 -72 -260 -113 -49 -25 -134 -75 -189 -111 -54 -36 -129 -82 -165 -101
-171 -90 -331 -216 -446 -354 -22 -26 -47 -55 -55 -63 -8 -9 -22 -26 -30 -39
-8 -12 -36 -53 -61 -91 -76 -110 -149 -250 -204 -387 -17 -44 -71 -225 -80
-271 -44 -226 -49 -276 -49 -560 0 -226 5 -332 20 -420 10 -54 12 -176 4 -213
-5 -21 -11 -62 -14 -93 -4 -31 -8 -66 -11 -77 -2 -11 -6 -37 -9 -58 -9 -59
-18 -103 -36 -169 -6 -22 -12 -49 -14 -60 -4 -21 -42 -140 -53 -165 -3 -8 -7
-17 -8 -20 0 -3 -11 -27 -23 -54 -12 -27 -22 -52 -22 -57 0 -5 -4 -9 -8 -9 -5
0 -14 -12 -21 -27 -29 -64 -109 -171 -190 -252 -86 -87 -172 -162 -194 -170
-6 -2 -19 -11 -28 -20 -10 -9 -35 -25 -56 -36 -148 -76 -194 -127 -207 -230
-4 -27 -9 -51 -11 -54 -2 -2 0 -11 5 -20 5 -10 5 -33 0 -54 -4 -22 -4 -39 1
-43 5 -3 7 -10 3 -15 -3 -6 -8 -42 -10 -82 -7 -148 -28 -288 -59 -412 -9 -33
-17 -67 -18 -75 -2 -8 -9 -35 -17 -60 -7 -25 -14 -49 -16 -55 -5 -22 -66 -169
-95 -230 -19 -38 -39 -65 -48 -66 -9 0 -122 -1 -251 -3 -256 -2 -274 -5 -336
-62 -34 -32 -65 -85 -71 -124 -8 -51 -8 -125 1 -131 5 -4 5 -13 0 -20 -10 -17
-12 -99 -3 -120 4 -8 4 -21 -1 -29 -5 -8 -4 -22 1 -32 5 -10 6 -18 2 -18 -5 0
-7 -17 -6 -38 4 -67 4 -67 -104 -66 -54 0 -102 -2 -108 -5 -5 -3 -13 -6 -17
-7 -5 -1 -10 -3 -13 -4 -3 -1 -9 -3 -14 -4 -22 -3 -93 -71 -111 -107 -18 -34
-33 -108 -31 -146 1 -12 1 -194 0 -225 0 -7 2 -37 3 -66 2 -28 0 -52 -4 -52
-4 0 -3 -13 2 -29 4 -16 6 -32 3 -35 -3 -3 -5 -29 -4 -58 4 -78 3 -78 15 -79
6 -1 2248 -2 4983 -3 4964 -1 4972 -1 4975 19 2 11 3 153 3 315 -2 276 -3 298
-22 340 -29 62 -61 96 -120 123 -42 19 -66 23 -152 22 l-101 0 -1 25 c0 14 -1
120 -2 235 -2 195 -4 213 -25 252 -12 22 -33 50 -46 61 -14 11 -23 22 -20 24
2 3 -20 14 -50 25 -47 17 -77 20 -245 19 -177 -1 -190 0 -185 16 36 114 17
242 -44 298 -31 28 -115 65 -169 74 -15 2 -28 5 -28 6 0 1 -10 3 -23 6 -36 6
-95 39 -125 69 -25 25 -29 33 -26 51 0 4 -5 10 -11 14 -7 4 -14 34 -16 66 -1
33 -4 61 -5 64 -7 18 -3 710 4 710 6 0 6 5 1 12 -11 16 -11 39 -1 55 5 7 4 13
0 13 -5 0 -8 15 -6 32 2 18 5 94 8 168 3 74 7 162 10 195 3 33 7 92 10 130 4
74 12 156 20 215 3 19 7 53 10 75 2 22 9 65 15 95 6 30 13 71 16 90 10 66 63
266 83 313 11 26 17 47 13 47 -4 0 -2 4 4 8 6 4 21 28 34 55 13 26 27 47 32
47 4 0 8 6 8 13 0 7 7 22 15 32 8 11 45 63 82 115 37 52 72 100 78 106 5 7 19
24 30 40 11 15 26 33 33 40 6 7 12 16 12 20 0 4 11 17 26 30 14 13 22 24 18
24 -4 0 1 8 12 19 21 20 23 23 104 126 30 39 58 72 62 73 5 2 8 10 8 18 0 8 4
14 9 14 5 0 19 15 30 33 11 19 31 45 43 59 31 34 88 116 88 127 0 5 7 11 15
15 8 3 15 10 15 15 0 5 18 39 41 76 52 85 137 265 145 305 2 8 7 23 13 35 23
47 80 268 97 369 3 21 7 47 9 58 3 11 7 46 11 77 3 31 8 65 10 75 2 11 6 80
10 155 3 75 8 139 11 144 2 4 -1 7 -7 7 -6 0 -8 5 -5 10 11 17 6 167 -10 325
-3 28 -8 75 -11 105 -3 30 -7 71 -9 90 -19 167 -25 414 -13 515 13 104 77 295
99 295 5 0 8 4 7 9 -5 16 84 111 146 156 35 25 66 45 69 45 7 0 126 69 142 82
6 5 53 39 105 77 52 38 100 74 107 80 7 6 24 16 38 23 14 6 25 15 25 20 0 4 4
8 9 8 8 0 73 36 126 70 13 8 52 33 87 54 35 22 65 42 68 45 3 4 23 19 45 36
54 40 58 43 113 96 67 64 115 120 131 152 8 15 18 27 23 27 5 0 6 5 3 10 -3 6
-2 10 3 10 12 0 57 105 76 176 22 86 39 261 26 269 -4 3 -5 16 -3 29 3 14 -4
57 -16 96 -40 130 -118 177 -256 152z m-5485 -4897 c25 -3 52 -9 60 -12 8 -3
28 -7 44 -9 16 -3 61 -14 100 -25 39 -12 76 -22 81 -24 6 -1 19 -6 30 -10 11
-4 58 -22 105 -40 47 -18 125 -51 173 -74 49 -22 90 -41 91 -41 2 0 65 -34
140 -75 75 -41 141 -75 146 -75 6 0 10 -4 10 -10 0 -5 5 -10 10 -10 6 0 27
-10 48 -23 20 -13 89 -50 152 -83 63 -32 118 -63 121 -67 3 -5 10 -9 15 -9 5
0 34 -11 64 -25 86 -40 223 -93 240 -93 9 0 20 -4 26 -9 5 -6 25 -13 44 -16
46 -9 65 -13 65 -15 0 -2 26 -9 60 -14 75 -13 127 -18 214 -20 68 -2 95 -6
101 -17 7 -12 16 -56 25 -114 1 -11 3 -20 4 -20 1 0 4 -13 6 -30 2 -16 7 -46
10 -65 3 -19 8 -46 10 -60 2 -14 6 -43 10 -65 4 -22 9 -53 11 -70 2 -16 6 -46
8 -65 3 -19 7 -62 11 -95 3 -33 8 -73 10 -90 27 -230 28 -846 1 -995 -11 -62
-18 -96 -21 -115 -2 -11 -4 -20 -5 -20 -1 0 -4 -13 -6 -30 -3 -16 -12 -52 -20
-80 -8 -27 -17 -66 -20 -85 -3 -19 -9 -48 -14 -65 -6 -16 -14 -52 -20 -80 -5
-27 -12 -61 -15 -75 -10 -47 -16 -95 -20 -165 -3 -38 -5 -72 -6 -75 -1 -3 0
-15 1 -27 1 -13 -2 -23 -7 -24 -4 0 -952 -1 -2106 -2 -1610 -2 -2097 1 -2097
10 0 6 5 24 11 40 14 37 13 130 -3 168 -26 62 -54 81 -168 111 -142 38 -184
82 -183 194 0 36 8 89 16 118 9 29 16 53 16 55 0 1 5 16 11 32 7 17 13 35 14
40 8 39 130 241 185 305 11 14 24 30 28 35 59 76 238 265 551 583 116 116 208
212 206 212 -3 0 5 11 18 24 61 64 98 106 92 106 -4 0 5 11 20 25 14 13 26 26
26 28 0 2 30 48 66 103 70 103 136 229 126 238 -3 3 0 6 6 6 7 0 12 4 12 9 0
5 5 22 12 38 6 15 12 30 12 33 1 4 49 149 62 190 3 8 5 15 4 15 0 0 11 34 26
75 14 41 27 80 28 85 14 52 76 172 103 203 7 7 18 21 25 30 19 26 113 102 125
102 6 0 13 3 15 8 3 8 93 53 111 56 7 1 17 4 22 8 10 6 42 13 100 24 16 3 32
7 34 10 6 6 324 -3 381 -11z m-2964 -2032 c3 -21 6 -56 9 -78 2 -22 4 -40 5
-40 0 0 3 -26 5 -57 3 -32 7 -72 10 -90 4 -18 8 -106 10 -196 3 -90 7 -167 10
-172 4 -6 3 -10 -2 -10 -4 0 -8 -44 -9 -98 -1 -96 -10 -239 -20 -317 -3 -22
-7 -53 -9 -70 -2 -16 -4 -30 -5 -30 -1 0 -3 -16 -6 -35 -8 -59 -10 -69 -17
-76 -3 -4 -66 -7 -140 -8 -132 -1 -133 -1 -129 21 5 28 -15 90 -37 112 -26 25
-69 51 -86 51 -8 0 -15 4 -15 10 0 5 -3 9 -7 8 -9 -3 -140 22 -198 38 -5 1
-20 4 -32 6 -12 2 -26 7 -29 11 -4 4 -16 7 -26 7 -10 0 -18 4 -18 8 0 5 -11
14 -24 22 -21 11 -32 31 -42 78 -3 17 14 80 34 122 9 19 15 38 14 43 -1 4 3 7
8 7 6 0 10 5 10 10 0 22 106 173 163 232 9 10 17 20 17 22 0 7 212 218 285
283 129 116 140 125 198 170 31 25 57 51 57 56 0 25 12 -6 16 -40z"/>
</g>
</svg>
